<svg width="56" height="54" viewBox="0 0 56 54" fill="none" xmlns="http://www.w3.org/2000/svg">
<path d="M55.0104 31.0892C55.0104 46.2799 42.6959 53.9998 27.5052 53.9998C12.3145 53.9998 0 46.2799 0 31.0892C0 15.8985 12.3145 1.42188 27.5052 1.42188C42.6959 1.42188 55.0104 15.8985 55.0104 31.0892Z" fill="#62BD67"/>
<ellipse cx="27.5048" cy="35.1513" rx="16.1639" ry="14.244" fill="#FFDBE9"/>
<rect x="21.4912" y="34.709" width="1.7368" height="3.50916" rx="0.8684" fill="#D06D74"/>
<rect x="28.6572" y="40.5645" width="0.997119" height="2.30411" rx="0.49856" transform="rotate(90 28.6572 40.5645)" fill="#FFA8C9"/>
<rect x="31.7822" y="34.709" width="1.7368" height="3.50916" rx="0.8684" fill="#D06D74"/>
<circle cx="14.4782" cy="7.0134" r="7.0134" fill="#62BD67"/>
<circle cx="40.5329" cy="7.0134" r="7.0134" fill="#62BD67"/>
<circle cx="14.478" cy="7.01317" r="5.43895" fill="#E9FFF0"/>
<circle cx="40.5327" cy="7.01317" r="5.43895" fill="#E9FFF0"/>
<circle cx="15.1531" cy="6.71264" r="4.76439" fill="#62BD67"/>
<circle cx="41.2068" cy="6.71264" r="4.76439" fill="#62BD67"/>
</svg>
